<?xml version="1.0" encoding="UTF-8" standalone="no"?>
<!-- Created with Inkscape (http://www.inkscape.org/) -->

<svg
   width="1920px"
   height="1080px"
   viewBox="0 0 1920 1080"
   version="1.1"
   id="SVGRoot"
   sodipodi:docname="Hexagons-Desktop.svg"
   inkscape:version="1.2.2 (b0a8486541, 2022-12-01)"
   xmlns:inkscape="http://www.inkscape.org/namespaces/inkscape"
   xmlns:sodipodi="http://sodipodi.sourceforge.net/DTD/sodipodi-0.dtd"
   xmlns="http://www.w3.org/2000/svg"
   xmlns:svg="http://www.w3.org/2000/svg">
  <sodipodi:namedview
     id="namedview3225"
     pagecolor="#505050"
     bordercolor="#eeeeee"
     borderopacity="1"
     inkscape:showpageshadow="0"
     inkscape:pageopacity="0"
     inkscape:pagecheckerboard="0"
     inkscape:deskcolor="#505050"
     inkscape:document-units="px"
     showgrid="false"
     inkscape:zoom="0.37371282"
     inkscape:cx="643.54227"
     inkscape:cy="291.66781"
     inkscape:window-width="1920"
     inkscape:window-height="1011"
     inkscape:window-x="0"
     inkscape:window-y="32"
     inkscape:window-maximized="1"
     inkscape:current-layer="layer1" />
  <defs
     id="defs3220" />
  <g
     inkscape:label="Layer 1"
     inkscape:groupmode="layer"
     id="layer1">
    <path
       sodipodi:type="star"
       style="fill:#000000;stroke-width:0.264583"
       id="path848"
       inkscape:flatsided="true"
       sodipodi:sides="6"
       sodipodi:cx="21.432611"
       sodipodi:cy="46.739861"
       sodipodi:r1="20.405426"
       sodipodi:r2="17.671618"
       sodipodi:arg1="1.0471976"
       sodipodi:arg2="1.5707963"
       inkscape:rounded="0"
       inkscape:randomized="0"
       d="M 31.635324,64.411478 11.229898,64.411477 1.0271854,46.73986 11.229899,29.068243 l 20.405426,1e-6 10.202712,17.671618 z"
       transform="matrix(6.0774278,0,0,6.0774278,248.32833,-83.059895)" />
    <path
       sodipodi:type="star"
       style="fill:#000000;stroke-width:0.264583"
       id="path958"
       inkscape:flatsided="true"
       sodipodi:sides="6"
       sodipodi:cx="21.432611"
       sodipodi:cy="46.739861"
       sodipodi:r1="20.405426"
       sodipodi:r2="17.671618"
       sodipodi:arg1="1.0471976"
       sodipodi:arg2="1.5707963"
       inkscape:rounded="0"
       inkscape:randomized="0"
       d="M 31.635324,64.411478 11.229898,64.411477 1.0271854,46.73986 11.229899,29.068243 l 20.405426,1e-6 10.202712,17.671618 z"
       transform="matrix(6.0774278,0,0,6.0774278,446.30162,28.611594)" />
    <path
       sodipodi:type="star"
       style="fill:#000000;stroke-width:0.264583"
       id="path960"
       inkscape:flatsided="true"
       sodipodi:sides="6"
       sodipodi:cx="21.432611"
       sodipodi:cy="46.739861"
       sodipodi:r1="20.405426"
       sodipodi:r2="17.671618"
       sodipodi:arg1="1.0471976"
       sodipodi:arg2="1.5707963"
       inkscape:rounded="0"
       inkscape:randomized="0"
       d="M 31.635324,64.411478 11.229898,64.411477 1.0271854,46.73986 11.229899,29.068243 l 20.405426,1e-6 10.202712,17.671618 z"
       transform="matrix(6.0774278,0,0,6.0774278,646.48548,-88.162318)" />
    <path
       sodipodi:type="star"
       style="fill:#000000;stroke-width:0.264583"
       id="path962"
       inkscape:flatsided="true"
       sodipodi:sides="6"
       sodipodi:cx="21.432611"
       sodipodi:cy="46.739861"
       sodipodi:r1="20.405426"
       sodipodi:r2="17.671618"
       sodipodi:arg1="1.0471976"
       sodipodi:arg2="1.5707963"
       inkscape:rounded="0"
       inkscape:randomized="0"
       d="M 31.635324,64.411478 11.229898,64.411477 1.0271854,46.73986 11.229899,29.068243 l 20.405426,1e-6 10.202712,17.671618 z"
       transform="matrix(6.0774278,0,0,6.0774278,843.14709,21.49271)" />
    <path
       sodipodi:type="star"
       style="fill:#000000;stroke-width:0.264583"
       id="path964"
       inkscape:flatsided="true"
       sodipodi:sides="6"
       sodipodi:cx="21.432611"
       sodipodi:cy="46.739861"
       sodipodi:r1="20.405426"
       sodipodi:r2="17.671618"
       sodipodi:arg1="1.0471976"
       sodipodi:arg2="1.5707963"
       inkscape:rounded="0"
       inkscape:randomized="0"
       d="M 31.635324,64.411478 11.229898,64.411477 1.0271854,46.73986 11.229899,29.068243 l 20.405426,1e-6 10.202712,17.671618 z"
       transform="matrix(6.0774278,0,0,6.0774278,1042.0555,-94.716572)" />
    <path
       sodipodi:type="star"
       style="fill:#000000;stroke-width:0.264583"
       id="path966"
       inkscape:flatsided="true"
       sodipodi:sides="6"
       sodipodi:cx="21.432611"
       sodipodi:cy="46.739861"
       sodipodi:r1="20.405426"
       sodipodi:r2="17.671618"
       sodipodi:arg1="1.0471976"
       sodipodi:arg2="1.5707963"
       inkscape:rounded="0"
       inkscape:randomized="0"
       d="M 31.635324,64.411478 11.229898,64.411477 1.0271854,46.73986 11.229899,29.068243 l 20.405426,1e-6 10.202712,17.671618 z"
       transform="matrix(6.0774278,0,0,6.0774278,652.10789,141.56367)" />
    <path
       sodipodi:type="star"
       style="fill:#000000;stroke-width:0.264583"
       id="path968"
       inkscape:flatsided="true"
       sodipodi:sides="6"
       sodipodi:cx="21.432611"
       sodipodi:cy="46.739861"
       sodipodi:r1="20.405426"
       sodipodi:r2="17.671618"
       sodipodi:arg1="1.0471976"
       sodipodi:arg2="1.5707963"
       inkscape:rounded="0"
       inkscape:randomized="0"
       d="M 31.635324,64.411478 11.229898,64.411477 1.0271854,46.73986 11.229899,29.068243 l 20.405426,1e-6 10.202712,17.671618 z"
       transform="matrix(6.0774278,0,0,6.0774278,247.39105,143.49685)" />
    <path
       sodipodi:type="star"
       style="fill:#000000;stroke-width:0.264583"
       id="path848-9"
       inkscape:flatsided="true"
       sodipodi:sides="6"
       sodipodi:cx="21.432611"
       sodipodi:cy="46.739861"
       sodipodi:r1="20.405426"
       sodipodi:r2="17.671618"
       sodipodi:arg1="1.0471976"
       sodipodi:arg2="1.5707963"
       inkscape:rounded="0"
       inkscape:randomized="0"
       d="M 31.635324,64.411478 11.229898,64.411477 1.0271854,46.73986 11.229899,29.068243 l 20.405426,1e-6 10.202712,17.671618 z"
       transform="matrix(6.0774278,0,0,6.0774278,252.403,367.98887)" />
    <path
       sodipodi:type="star"
       style="fill:#000000;stroke-width:0.264583"
       id="path968-1"
       inkscape:flatsided="true"
       sodipodi:sides="6"
       sodipodi:cx="21.432611"
       sodipodi:cy="46.739861"
       sodipodi:r1="20.405426"
       sodipodi:r2="17.671618"
       sodipodi:arg1="1.0471976"
       sodipodi:arg2="1.5707963"
       inkscape:rounded="0"
       inkscape:randomized="0"
       d="M 31.635324,64.411478 11.229898,64.411477 1.0271854,46.73986 11.229899,29.068243 l 20.405426,1e-6 10.202712,17.671618 z"
       transform="matrix(6.0774278,0,0,6.0774278,251.46572,594.54564)" />
    <path
       sodipodi:type="star"
       style="fill:#000000;stroke-width:0.264583"
       id="path970"
       inkscape:flatsided="true"
       sodipodi:sides="6"
       sodipodi:cx="21.432611"
       sodipodi:cy="46.739861"
       sodipodi:r1="20.405426"
       sodipodi:r2="17.671618"
       sodipodi:arg1="1.0471976"
       sodipodi:arg2="1.5707963"
       inkscape:rounded="0"
       inkscape:randomized="0"
       d="M 31.635324,64.411478 11.229898,64.411477 1.0271854,46.73986 11.229899,29.068243 l 20.405426,1e-6 10.202712,17.671618 z"
       transform="matrix(6.0774278,0,0,6.0774278,1042.117,130.74344)" />
    <path
       sodipodi:type="star"
       style="fill:#000000;stroke-width:0.264583"
       id="path848-3"
       inkscape:flatsided="true"
       sodipodi:sides="6"
       sodipodi:cx="21.432611"
       sodipodi:cy="46.739861"
       sodipodi:r1="20.405426"
       sodipodi:r2="17.671618"
       sodipodi:arg1="1.0471976"
       sodipodi:arg2="1.5707963"
       inkscape:rounded="0"
       inkscape:randomized="0"
       d="M 31.635324,64.411478 11.229898,64.411477 1.0271854,46.73986 11.229899,29.068243 l 20.405426,1e-6 10.202712,17.671618 z"
       transform="matrix(6.0774278,0,0,6.0774278,453.83573,257.86106)" />
    <path
       sodipodi:type="star"
       style="fill:#000000;stroke-width:0.264583"
       id="path958-6"
       inkscape:flatsided="true"
       sodipodi:sides="6"
       sodipodi:cx="21.432611"
       sodipodi:cy="46.739861"
       sodipodi:r1="20.405426"
       sodipodi:r2="17.671618"
       sodipodi:arg1="1.0471976"
       sodipodi:arg2="1.5707963"
       inkscape:rounded="0"
       inkscape:randomized="0"
       d="M 31.635324,64.411478 11.229898,64.411477 1.0271854,46.73986 11.229899,29.068243 l 20.405426,1e-6 10.202712,17.671618 z"
       transform="matrix(6.0774278,0,0,6.0774278,651.80904,369.53252)" />
    <path
       sodipodi:type="star"
       style="fill:#000000;stroke-width:0.264583"
       id="path960-7"
       inkscape:flatsided="true"
       sodipodi:sides="6"
       sodipodi:cx="21.432611"
       sodipodi:cy="46.739861"
       sodipodi:r1="20.405426"
       sodipodi:r2="17.671618"
       sodipodi:arg1="1.0471976"
       sodipodi:arg2="1.5707963"
       inkscape:rounded="0"
       inkscape:randomized="0"
       d="M 31.635324,64.411478 11.229898,64.411477 1.0271854,46.73986 11.229899,29.068243 l 20.405426,1e-6 10.202712,17.671618 z"
       transform="matrix(6.0774278,0,0,6.0774278,851.99287,252.75863)" />
    <path
       sodipodi:type="star"
       style="fill:#000000;stroke-width:0.264583"
       id="path962-5"
       inkscape:flatsided="true"
       sodipodi:sides="6"
       sodipodi:cx="21.432611"
       sodipodi:cy="46.739861"
       sodipodi:r1="20.405426"
       sodipodi:r2="17.671618"
       sodipodi:arg1="1.0471976"
       sodipodi:arg2="1.5707963"
       inkscape:rounded="0"
       inkscape:randomized="0"
       d="M 31.635324,64.411478 11.229898,64.411477 1.0271854,46.73986 11.229899,29.068243 l 20.405426,1e-6 10.202712,17.671618 z"
       transform="matrix(6.0774278,0,0,6.0774278,1048.6546,362.41366)" />
    <path
       sodipodi:type="star"
       style="fill:#000000;stroke-width:0.264583"
       id="path964-3"
       inkscape:flatsided="true"
       sodipodi:sides="6"
       sodipodi:cx="21.432611"
       sodipodi:cy="46.739861"
       sodipodi:r1="20.405426"
       sodipodi:r2="17.671618"
       sodipodi:arg1="1.0471976"
       sodipodi:arg2="1.5707963"
       inkscape:rounded="0"
       inkscape:randomized="0"
       d="M 31.635324,64.411478 11.229898,64.411477 1.0271854,46.73986 11.229899,29.068243 l 20.405426,1e-6 10.202712,17.671618 z"
       transform="matrix(6.0774278,0,0,6.0774278,1247.563,246.20437)" />
    <path
       sodipodi:type="star"
       style="fill:#000000;stroke-width:0.264583"
       id="path966-5"
       inkscape:flatsided="true"
       sodipodi:sides="6"
       sodipodi:cx="21.432611"
       sodipodi:cy="46.739861"
       sodipodi:r1="20.405426"
       sodipodi:r2="17.671618"
       sodipodi:arg1="1.0471976"
       sodipodi:arg2="1.5707963"
       inkscape:rounded="0"
       inkscape:randomized="0"
       d="M 31.635324,64.411478 11.229898,64.411477 1.0271854,46.73986 11.229899,29.068243 l 20.405426,1e-6 10.202712,17.671618 z"
       transform="matrix(6.0774278,0,0,6.0774278,857.61528,482.48462)" />
    <path
       sodipodi:type="star"
       style="fill:#000000;stroke-width:0.264583"
       id="path968-6"
       inkscape:flatsided="true"
       sodipodi:sides="6"
       sodipodi:cx="21.432611"
       sodipodi:cy="46.739861"
       sodipodi:r1="20.405426"
       sodipodi:r2="17.671618"
       sodipodi:arg1="1.0471976"
       sodipodi:arg2="1.5707963"
       inkscape:rounded="0"
       inkscape:randomized="0"
       d="M 31.635324,64.411478 11.229898,64.411477 1.0271854,46.73986 11.229899,29.068243 l 20.405426,1e-6 10.202712,17.671618 z"
       transform="matrix(6.0774278,0,0,6.0774278,452.89845,484.4178)" />
    <path
       sodipodi:type="star"
       style="fill:#000000;stroke-width:0.264583"
       id="path970-2"
       inkscape:flatsided="true"
       sodipodi:sides="6"
       sodipodi:cx="21.432611"
       sodipodi:cy="46.739861"
       sodipodi:r1="20.405426"
       sodipodi:r2="17.671618"
       sodipodi:arg1="1.0471976"
       sodipodi:arg2="1.5707963"
       inkscape:rounded="0"
       inkscape:randomized="0"
       d="M 31.635324,64.411478 11.229898,64.411477 1.0271854,46.73986 11.229899,29.068243 l 20.405426,1e-6 10.202712,17.671618 z"
       transform="matrix(6.0774278,0,0,6.0774278,1247.6245,471.66438)" />
    <path
       sodipodi:type="star"
       style="fill:#000000;stroke-width:0.264583"
       id="path970-2-0"
       inkscape:flatsided="true"
       sodipodi:sides="6"
       sodipodi:cx="21.432611"
       sodipodi:cy="46.739861"
       sodipodi:r1="20.405426"
       sodipodi:r2="17.671618"
       sodipodi:arg1="1.0471976"
       sodipodi:arg2="1.5707963"
       inkscape:rounded="0"
       inkscape:randomized="0"
       d="M 31.635324,64.411478 11.229898,64.411477 1.0271854,46.73986 11.229899,29.068243 l 20.405426,1e-6 10.202712,17.671618 z"
       transform="matrix(6.0774278,0,0,6.0774278,1245.4649,18.463571)" />
    <path
       sodipodi:type="star"
       style="fill:#000000;stroke-width:0.264583"
       id="path4646"
       inkscape:flatsided="true"
       sodipodi:sides="6"
       sodipodi:cx="21.432611"
       sodipodi:cy="46.739861"
       sodipodi:r1="20.405426"
       sodipodi:r2="17.671618"
       sodipodi:arg1="1.0471976"
       sodipodi:arg2="1.5707963"
       inkscape:rounded="0"
       inkscape:randomized="0"
       d="M 31.635324,64.411478 11.229898,64.411477 1.0271854,46.73986 11.229899,29.068243 l 20.405426,1e-6 10.202712,17.671618 z"
       transform="matrix(6.0774278,0,0,6.0774278,248.32833,-83.059895)" />
    <path
       sodipodi:type="star"
       style="fill:#000000;stroke-width:0.264583"
       id="path4648"
       inkscape:flatsided="true"
       sodipodi:sides="6"
       sodipodi:cx="21.432611"
       sodipodi:cy="46.739861"
       sodipodi:r1="20.405426"
       sodipodi:r2="17.671618"
       sodipodi:arg1="1.0471976"
       sodipodi:arg2="1.5707963"
       inkscape:rounded="0"
       inkscape:randomized="0"
       d="M 31.635324,64.411478 11.229898,64.411477 1.0271854,46.73986 11.229899,29.068243 l 20.405426,1e-6 10.202712,17.671618 z"
       transform="matrix(6.0774278,0,0,6.0774278,446.30162,28.611594)" />
    <path
       sodipodi:type="star"
       style="fill:#000000;stroke-width:0.264583"
       id="path4650"
       inkscape:flatsided="true"
       sodipodi:sides="6"
       sodipodi:cx="21.432611"
       sodipodi:cy="46.739861"
       sodipodi:r1="20.405426"
       sodipodi:r2="17.671618"
       sodipodi:arg1="1.0471976"
       sodipodi:arg2="1.5707963"
       inkscape:rounded="0"
       inkscape:randomized="0"
       d="M 31.635324,64.411478 11.229898,64.411477 1.0271854,46.73986 11.229899,29.068243 l 20.405426,1e-6 10.202712,17.671618 z"
       transform="matrix(6.0774278,0,0,6.0774278,646.48548,-88.162318)" />
    <path
       sodipodi:type="star"
       style="fill:#000000;stroke-width:0.264583"
       id="path4652"
       inkscape:flatsided="true"
       sodipodi:sides="6"
       sodipodi:cx="21.432611"
       sodipodi:cy="46.739861"
       sodipodi:r1="20.405426"
       sodipodi:r2="17.671618"
       sodipodi:arg1="1.0471976"
       sodipodi:arg2="1.5707963"
       inkscape:rounded="0"
       inkscape:randomized="0"
       d="M 31.635324,64.411478 11.229898,64.411477 1.0271854,46.73986 11.229899,29.068243 l 20.405426,1e-6 10.202712,17.671618 z"
       transform="matrix(6.0774278,0,0,6.0774278,843.14709,21.49271)" />
    <path
       sodipodi:type="star"
       style="fill:#000000;stroke-width:0.264583"
       id="path4654"
       inkscape:flatsided="true"
       sodipodi:sides="6"
       sodipodi:cx="21.432611"
       sodipodi:cy="46.739861"
       sodipodi:r1="20.405426"
       sodipodi:r2="17.671618"
       sodipodi:arg1="1.0471976"
       sodipodi:arg2="1.5707963"
       inkscape:rounded="0"
       inkscape:randomized="0"
       d="M 31.635324,64.411478 11.229898,64.411477 1.0271854,46.73986 11.229899,29.068243 l 20.405426,1e-6 10.202712,17.671618 z"
       transform="matrix(6.0774278,0,0,6.0774278,1042.0555,-94.716572)" />
    <path
       sodipodi:type="star"
       style="fill:#000000;stroke-width:0.264583"
       id="path4656"
       inkscape:flatsided="true"
       sodipodi:sides="6"
       sodipodi:cx="21.432611"
       sodipodi:cy="46.739861"
       sodipodi:r1="20.405426"
       sodipodi:r2="17.671618"
       sodipodi:arg1="1.0471976"
       sodipodi:arg2="1.5707963"
       inkscape:rounded="0"
       inkscape:randomized="0"
       d="M 31.635324,64.411478 11.229898,64.411477 1.0271854,46.73986 11.229899,29.068243 l 20.405426,1e-6 10.202712,17.671618 z"
       transform="matrix(6.0774278,0,0,6.0774278,652.10789,141.56367)" />
    <path
       sodipodi:type="star"
       style="fill:#000000;stroke-width:0.264583"
       id="path4658"
       inkscape:flatsided="true"
       sodipodi:sides="6"
       sodipodi:cx="21.432611"
       sodipodi:cy="46.739861"
       sodipodi:r1="20.405426"
       sodipodi:r2="17.671618"
       sodipodi:arg1="1.0471976"
       sodipodi:arg2="1.5707963"
       inkscape:rounded="0"
       inkscape:randomized="0"
       d="M 31.635324,64.411478 11.229898,64.411477 1.0271854,46.73986 11.229899,29.068243 l 20.405426,1e-6 10.202712,17.671618 z"
       transform="matrix(6.0774278,0,0,6.0774278,247.39105,143.49685)" />
    <path
       sodipodi:type="star"
       style="fill:#000000;stroke-width:0.264583"
       id="path4660"
       inkscape:flatsided="true"
       sodipodi:sides="6"
       sodipodi:cx="21.432611"
       sodipodi:cy="46.739861"
       sodipodi:r1="20.405426"
       sodipodi:r2="17.671618"
       sodipodi:arg1="1.0471976"
       sodipodi:arg2="1.5707963"
       inkscape:rounded="0"
       inkscape:randomized="0"
       d="M 31.635324,64.411478 11.229898,64.411477 1.0271854,46.73986 11.229899,29.068243 l 20.405426,1e-6 10.202712,17.671618 z"
       transform="matrix(6.0774278,0,0,6.0774278,252.403,367.98887)" />
    <path
       sodipodi:type="star"
       style="fill:#000000;stroke-width:0.264583"
       id="path4662"
       inkscape:flatsided="true"
       sodipodi:sides="6"
       sodipodi:cx="21.432611"
       sodipodi:cy="46.739861"
       sodipodi:r1="20.405426"
       sodipodi:r2="17.671618"
       sodipodi:arg1="1.0471976"
       sodipodi:arg2="1.5707963"
       inkscape:rounded="0"
       inkscape:randomized="0"
       d="M 31.635324,64.411478 11.229898,64.411477 1.0271854,46.73986 11.229899,29.068243 l 20.405426,1e-6 10.202712,17.671618 z"
       transform="matrix(6.0774278,0,0,6.0774278,251.46572,594.54564)" />
    <path
       sodipodi:type="star"
       style="fill:#000000;stroke-width:0.264583"
       id="path4664"
       inkscape:flatsided="true"
       sodipodi:sides="6"
       sodipodi:cx="21.432611"
       sodipodi:cy="46.739861"
       sodipodi:r1="20.405426"
       sodipodi:r2="17.671618"
       sodipodi:arg1="1.0471976"
       sodipodi:arg2="1.5707963"
       inkscape:rounded="0"
       inkscape:randomized="0"
       d="M 31.635324,64.411478 11.229898,64.411477 1.0271854,46.73986 11.229899,29.068243 l 20.405426,1e-6 10.202712,17.671618 z"
       transform="matrix(6.0774278,0,0,6.0774278,1042.117,130.74344)" />
    <path
       sodipodi:type="star"
       style="fill:#000000;stroke-width:0.264583"
       id="path4666"
       inkscape:flatsided="true"
       sodipodi:sides="6"
       sodipodi:cx="21.432611"
       sodipodi:cy="46.739861"
       sodipodi:r1="20.405426"
       sodipodi:r2="17.671618"
       sodipodi:arg1="1.0471976"
       sodipodi:arg2="1.5707963"
       inkscape:rounded="0"
       inkscape:randomized="0"
       d="M 31.635324,64.411478 11.229898,64.411477 1.0271854,46.73986 11.229899,29.068243 l 20.405426,1e-6 10.202712,17.671618 z"
       transform="matrix(6.0774278,0,0,6.0774278,453.83573,257.86106)" />
    <path
       sodipodi:type="star"
       style="fill:#000000;stroke-width:0.264583"
       id="path4668"
       inkscape:flatsided="true"
       sodipodi:sides="6"
       sodipodi:cx="21.432611"
       sodipodi:cy="46.739861"
       sodipodi:r1="20.405426"
       sodipodi:r2="17.671618"
       sodipodi:arg1="1.0471976"
       sodipodi:arg2="1.5707963"
       inkscape:rounded="0"
       inkscape:randomized="0"
       d="M 31.635324,64.411478 11.229898,64.411477 1.0271854,46.73986 11.229899,29.068243 l 20.405426,1e-6 10.202712,17.671618 z"
       transform="matrix(6.0774278,0,0,6.0774278,651.80904,369.53252)" />
    <path
       sodipodi:type="star"
       style="fill:#000000;stroke-width:0.264583"
       id="path4670"
       inkscape:flatsided="true"
       sodipodi:sides="6"
       sodipodi:cx="21.432611"
       sodipodi:cy="46.739861"
       sodipodi:r1="20.405426"
       sodipodi:r2="17.671618"
       sodipodi:arg1="1.0471976"
       sodipodi:arg2="1.5707963"
       inkscape:rounded="0"
       inkscape:randomized="0"
       d="M 31.635324,64.411478 11.229898,64.411477 1.0271854,46.73986 11.229899,29.068243 l 20.405426,1e-6 10.202712,17.671618 z"
       transform="matrix(6.0774278,0,0,6.0774278,851.99287,252.75863)" />
    <path
       sodipodi:type="star"
       style="fill:#000000;stroke-width:0.264583"
       id="path4672"
       inkscape:flatsided="true"
       sodipodi:sides="6"
       sodipodi:cx="21.432611"
       sodipodi:cy="46.739861"
       sodipodi:r1="20.405426"
       sodipodi:r2="17.671618"
       sodipodi:arg1="1.0471976"
       sodipodi:arg2="1.5707963"
       inkscape:rounded="0"
       inkscape:randomized="0"
       d="M 31.635324,64.411478 11.229898,64.411477 1.0271854,46.73986 11.229899,29.068243 l 20.405426,1e-6 10.202712,17.671618 z"
       transform="matrix(6.0774278,0,0,6.0774278,1048.6546,362.41366)" />
    <path
       sodipodi:type="star"
       style="fill:#000000;stroke-width:0.264583"
       id="path4674"
       inkscape:flatsided="true"
       sodipodi:sides="6"
       sodipodi:cx="21.432611"
       sodipodi:cy="46.739861"
       sodipodi:r1="20.405426"
       sodipodi:r2="17.671618"
       sodipodi:arg1="1.0471976"
       sodipodi:arg2="1.5707963"
       inkscape:rounded="0"
       inkscape:randomized="0"
       d="M 31.635324,64.411478 11.229898,64.411477 1.0271854,46.73986 11.229899,29.068243 l 20.405426,1e-6 10.202712,17.671618 z"
       transform="matrix(6.0774278,0,0,6.0774278,1247.563,246.20437)" />
    <path
       sodipodi:type="star"
       style="fill:#000000;stroke-width:0.264583"
       id="path4676"
       inkscape:flatsided="true"
       sodipodi:sides="6"
       sodipodi:cx="21.432611"
       sodipodi:cy="46.739861"
       sodipodi:r1="20.405426"
       sodipodi:r2="17.671618"
       sodipodi:arg1="1.0471976"
       sodipodi:arg2="1.5707963"
       inkscape:rounded="0"
       inkscape:randomized="0"
       d="M 31.635324,64.411478 11.229898,64.411477 1.0271854,46.73986 11.229899,29.068243 l 20.405426,1e-6 10.202712,17.671618 z"
       transform="matrix(6.0774278,0,0,6.0774278,857.61528,482.48462)" />
    <path
       sodipodi:type="star"
       style="fill:#000000;stroke-width:0.264583"
       id="path4678"
       inkscape:flatsided="true"
       sodipodi:sides="6"
       sodipodi:cx="21.432611"
       sodipodi:cy="46.739861"
       sodipodi:r1="20.405426"
       sodipodi:r2="17.671618"
       sodipodi:arg1="1.0471976"
       sodipodi:arg2="1.5707963"
       inkscape:rounded="0"
       inkscape:randomized="0"
       d="M 31.635324,64.411478 11.229898,64.411477 1.0271854,46.73986 11.229899,29.068243 l 20.405426,1e-6 10.202712,17.671618 z"
       transform="matrix(6.0774278,0,0,6.0774278,452.89845,484.4178)" />
    <path
       sodipodi:type="star"
       style="fill:#000000;stroke-width:0.264583"
       id="path4680"
       inkscape:flatsided="true"
       sodipodi:sides="6"
       sodipodi:cx="21.432611"
       sodipodi:cy="46.739861"
       sodipodi:r1="20.405426"
       sodipodi:r2="17.671618"
       sodipodi:arg1="1.0471976"
       sodipodi:arg2="1.5707963"
       inkscape:rounded="0"
       inkscape:randomized="0"
       d="M 31.635324,64.411478 11.229898,64.411477 1.0271854,46.73986 11.229899,29.068243 l 20.405426,1e-6 10.202712,17.671618 z"
       transform="matrix(6.0774278,0,0,6.0774278,1247.6245,471.66438)" />
    <path
       sodipodi:type="star"
       style="fill:#000000;stroke-width:0.264583"
       id="path4682"
       inkscape:flatsided="true"
       sodipodi:sides="6"
       sodipodi:cx="21.432611"
       sodipodi:cy="46.739861"
       sodipodi:r1="20.405426"
       sodipodi:r2="17.671618"
       sodipodi:arg1="1.0471976"
       sodipodi:arg2="1.5707963"
       inkscape:rounded="0"
       inkscape:randomized="0"
       d="M 31.635324,64.411478 11.229898,64.411477 1.0271854,46.73986 11.229899,29.068243 l 20.405426,1e-6 10.202712,17.671618 z"
       transform="matrix(6.0774278,0,0,6.0774278,1245.4649,18.463571)" />
  </g>
</svg>
