<?xml version="1.0" encoding="UTF-8" standalone="no"?>
<!-- Created with Inkscape (http://www.inkscape.org/) -->

<svg
   width="210mm"
   height="297mm"
   viewBox="0 0 210 297"
   version="1.1"
   id="svg5"
   inkscape:version="1.2.2 (b0a8486541, 2022-12-01)"
   sodipodi:docname="Hexagons.svg"
   xmlns:inkscape="http://www.inkscape.org/namespaces/inkscape"
   xmlns:sodipodi="http://sodipodi.sourceforge.net/DTD/sodipodi-0.dtd"
   xmlns="http://www.w3.org/2000/svg"
   xmlns:svg="http://www.w3.org/2000/svg">
  <sodipodi:namedview
     id="namedview7"
     pagecolor="#505050"
     bordercolor="#eeeeee"
     borderopacity="1"
     inkscape:showpageshadow="0"
     inkscape:pageopacity="0"
     inkscape:pagecheckerboard="0"
     inkscape:deskcolor="#505050"
     inkscape:document-units="mm"
     showgrid="false"
     inkscape:zoom="0.9269728"
     inkscape:cx="276.70715"
     inkscape:cy="229.78021"
     inkscape:window-width="1920"
     inkscape:window-height="1011"
     inkscape:window-x="0"
     inkscape:window-y="32"
     inkscape:window-maximized="1"
     inkscape:current-layer="layer1" />
  <defs
     id="defs2" />
  <g
     inkscape:label="Layer 1"
     inkscape:groupmode="layer"
     id="layer1">
    <path
       sodipodi:type="star"
       style="fill:#000000;stroke-width:0.264583"
       id="path848"
       inkscape:flatsided="true"
       sodipodi:sides="6"
       sodipodi:cx="21.432611"
       sodipodi:cy="46.739861"
       sodipodi:r1="20.405426"
       sodipodi:r2="17.671618"
       sodipodi:arg1="1.0471976"
       sodipodi:arg2="1.5707963"
       inkscape:rounded="0"
       inkscape:randomized="0"
       d="M 31.635324,64.411478 11.229898,64.411477 1.0271854,46.73986 11.229899,29.068243 l 20.405426,1e-6 10.202712,17.671618 z"
       transform="matrix(0.81639332,0,0,0.81639332,36.260275,14.517359)" />
    <path
       sodipodi:type="star"
       style="fill:#000000;stroke-width:0.264583"
       id="path958"
       inkscape:flatsided="true"
       sodipodi:sides="6"
       sodipodi:cx="21.432611"
       sodipodi:cy="46.739861"
       sodipodi:r1="20.405426"
       sodipodi:r2="17.671618"
       sodipodi:arg1="1.0471976"
       sodipodi:arg2="1.5707963"
       inkscape:rounded="0"
       inkscape:randomized="0"
       d="M 31.635324,64.411478 11.229898,64.411477 1.0271854,46.73986 11.229899,29.068243 l 20.405426,1e-6 10.202712,17.671618 z"
       transform="matrix(0.81639332,0,0,0.81639332,62.854433,29.518418)" />
    <path
       sodipodi:type="star"
       style="fill:#000000;stroke-width:0.264583"
       id="path960"
       inkscape:flatsided="true"
       sodipodi:sides="6"
       sodipodi:cx="21.432611"
       sodipodi:cy="46.739861"
       sodipodi:r1="20.405426"
       sodipodi:r2="17.671618"
       sodipodi:arg1="1.0471976"
       sodipodi:arg2="1.5707963"
       inkscape:rounded="0"
       inkscape:randomized="0"
       d="M 31.635324,64.411478 11.229898,64.411477 1.0271854,46.73986 11.229899,29.068243 l 20.405426,1e-6 10.202712,17.671618 z"
       transform="matrix(0.81639332,0,0,0.81639332,89.745542,13.831941)" />
    <path
       sodipodi:type="star"
       style="fill:#000000;stroke-width:0.264583"
       id="path962"
       inkscape:flatsided="true"
       sodipodi:sides="6"
       sodipodi:cx="21.432611"
       sodipodi:cy="46.739861"
       sodipodi:r1="20.405426"
       sodipodi:r2="17.671618"
       sodipodi:arg1="1.0471976"
       sodipodi:arg2="1.5707963"
       inkscape:rounded="0"
       inkscape:randomized="0"
       d="M 31.635324,64.411478 11.229898,64.411477 1.0271854,46.73986 11.229899,29.068243 l 20.405426,1e-6 10.202712,17.671618 z"
       transform="matrix(0.81639332,0,0,0.81639332,116.1635,28.562126)" />
    <path
       sodipodi:type="star"
       style="fill:#000000;stroke-width:0.264583"
       id="path964"
       inkscape:flatsided="true"
       sodipodi:sides="6"
       sodipodi:cx="21.432611"
       sodipodi:cy="46.739861"
       sodipodi:r1="20.405426"
       sodipodi:r2="17.671618"
       sodipodi:arg1="1.0471976"
       sodipodi:arg2="1.5707963"
       inkscape:rounded="0"
       inkscape:randomized="0"
       d="M 31.635324,64.411478 11.229898,64.411477 1.0271854,46.73986 11.229899,29.068243 l 20.405426,1e-6 10.202712,17.671618 z"
       transform="matrix(0.81639332,0,0,0.81639332,142.88328,12.951495)" />
    <path
       sodipodi:type="star"
       style="fill:#000000;stroke-width:0.264583"
       id="path966"
       inkscape:flatsided="true"
       sodipodi:sides="6"
       sodipodi:cx="21.432611"
       sodipodi:cy="46.739861"
       sodipodi:r1="20.405426"
       sodipodi:r2="17.671618"
       sodipodi:arg1="1.0471976"
       sodipodi:arg2="1.5707963"
       inkscape:rounded="0"
       inkscape:randomized="0"
       d="M 31.635324,64.411478 11.229898,64.411477 1.0271854,46.73986 11.229899,29.068243 l 20.405426,1e-6 10.202712,17.671618 z"
       transform="matrix(0.81639332,0,0,0.81639332,90.500809,44.691504)" />
    <path
       sodipodi:type="star"
       style="fill:#000000;stroke-width:0.264583"
       id="path968"
       inkscape:flatsided="true"
       sodipodi:sides="6"
       sodipodi:cx="21.432611"
       sodipodi:cy="46.739861"
       sodipodi:r1="20.405426"
       sodipodi:r2="17.671618"
       sodipodi:arg1="1.0471976"
       sodipodi:arg2="1.5707963"
       inkscape:rounded="0"
       inkscape:randomized="0"
       d="M 31.635324,64.411478 11.229898,64.411477 1.0271854,46.73986 11.229899,29.068243 l 20.405426,1e-6 10.202712,17.671618 z"
       transform="matrix(0.81639332,0,0,0.81639332,36.134368,44.951192)" />
    <path
       sodipodi:type="star"
       style="fill:#000000;stroke-width:0.264583"
       id="path848-9"
       inkscape:flatsided="true"
       sodipodi:sides="6"
       sodipodi:cx="21.432611"
       sodipodi:cy="46.739861"
       sodipodi:r1="20.405426"
       sodipodi:r2="17.671618"
       sodipodi:arg1="1.0471976"
       sodipodi:arg2="1.5707963"
       inkscape:rounded="0"
       inkscape:randomized="0"
       d="M 31.635324,64.411478 11.229898,64.411477 1.0271854,46.73986 11.229899,29.068243 l 20.405426,1e-6 10.202712,17.671618 z"
       transform="matrix(0.81639332,0,0,0.81639332,36.807634,75.107663)" />
    <path
       sodipodi:type="star"
       style="fill:#000000;stroke-width:0.264583"
       id="path968-1"
       inkscape:flatsided="true"
       sodipodi:sides="6"
       sodipodi:cx="21.432611"
       sodipodi:cy="46.739861"
       sodipodi:r1="20.405426"
       sodipodi:r2="17.671618"
       sodipodi:arg1="1.0471976"
       sodipodi:arg2="1.5707963"
       inkscape:rounded="0"
       inkscape:randomized="0"
       d="M 31.635324,64.411478 11.229898,64.411477 1.0271854,46.73986 11.229899,29.068243 l 20.405426,1e-6 10.202712,17.671618 z"
       transform="matrix(0.81639332,0,0,0.81639332,36.681727,105.5415)" />
    <path
       sodipodi:type="star"
       style="fill:#000000;stroke-width:0.264583"
       id="path970"
       inkscape:flatsided="true"
       sodipodi:sides="6"
       sodipodi:cx="21.432611"
       sodipodi:cy="46.739861"
       sodipodi:r1="20.405426"
       sodipodi:r2="17.671618"
       sodipodi:arg1="1.0471976"
       sodipodi:arg2="1.5707963"
       inkscape:rounded="0"
       inkscape:randomized="0"
       d="M 31.635324,64.411478 11.229898,64.411477 1.0271854,46.73986 11.229899,29.068243 l 20.405426,1e-6 10.202712,17.671618 z"
       transform="matrix(0.81639332,0,0,0.81639332,142.89154,43.237999)" />
    <path
       sodipodi:type="star"
       style="fill:#000000;stroke-width:0.264583"
       id="path848-3"
       inkscape:flatsided="true"
       sodipodi:sides="6"
       sodipodi:cx="21.432611"
       sodipodi:cy="46.739861"
       sodipodi:r1="20.405426"
       sodipodi:r2="17.671618"
       sodipodi:arg1="1.0471976"
       sodipodi:arg2="1.5707963"
       inkscape:rounded="0"
       inkscape:randomized="0"
       d="M 31.635324,64.411478 11.229898,64.411477 1.0271854,46.73986 11.229899,29.068243 l 20.405426,1e-6 10.202712,17.671618 z"
       transform="matrix(0.81639332,0,0,0.81639332,63.866506,60.313968)" />
    <path
       sodipodi:type="star"
       style="fill:#000000;stroke-width:0.264583"
       id="path958-6"
       inkscape:flatsided="true"
       sodipodi:sides="6"
       sodipodi:cx="21.432611"
       sodipodi:cy="46.739861"
       sodipodi:r1="20.405426"
       sodipodi:r2="17.671618"
       sodipodi:arg1="1.0471976"
       sodipodi:arg2="1.5707963"
       inkscape:rounded="0"
       inkscape:randomized="0"
       d="M 31.635324,64.411478 11.229898,64.411477 1.0271854,46.73986 11.229899,29.068243 l 20.405426,1e-6 10.202712,17.671618 z"
       transform="matrix(0.81639332,0,0,0.81639332,90.460664,75.315027)" />
    <path
       sodipodi:type="star"
       style="fill:#000000;stroke-width:0.264583"
       id="path960-7"
       inkscape:flatsided="true"
       sodipodi:sides="6"
       sodipodi:cx="21.432611"
       sodipodi:cy="46.739861"
       sodipodi:r1="20.405426"
       sodipodi:r2="17.671618"
       sodipodi:arg1="1.0471976"
       sodipodi:arg2="1.5707963"
       inkscape:rounded="0"
       inkscape:randomized="0"
       d="M 31.635324,64.411478 11.229898,64.411477 1.0271854,46.73986 11.229899,29.068243 l 20.405426,1e-6 10.202712,17.671618 z"
       transform="matrix(0.81639332,0,0,0.81639332,117.35177,59.62855)" />
    <path
       sodipodi:type="star"
       style="fill:#000000;stroke-width:0.264583"
       id="path962-5"
       inkscape:flatsided="true"
       sodipodi:sides="6"
       sodipodi:cx="21.432611"
       sodipodi:cy="46.739861"
       sodipodi:r1="20.405426"
       sodipodi:r2="17.671618"
       sodipodi:arg1="1.0471976"
       sodipodi:arg2="1.5707963"
       inkscape:rounded="0"
       inkscape:randomized="0"
       d="M 31.635324,64.411478 11.229898,64.411477 1.0271854,46.73986 11.229899,29.068243 l 20.405426,1e-6 10.202712,17.671618 z"
       transform="matrix(0.81639332,0,0,0.81639332,143.76973,74.358735)" />
    <path
       sodipodi:type="star"
       style="fill:#000000;stroke-width:0.264583"
       id="path964-3"
       inkscape:flatsided="true"
       sodipodi:sides="6"
       sodipodi:cx="21.432611"
       sodipodi:cy="46.739861"
       sodipodi:r1="20.405426"
       sodipodi:r2="17.671618"
       sodipodi:arg1="1.0471976"
       sodipodi:arg2="1.5707963"
       inkscape:rounded="0"
       inkscape:randomized="0"
       d="M 31.635324,64.411478 11.229898,64.411477 1.0271854,46.73986 11.229899,29.068243 l 20.405426,1e-6 10.202712,17.671618 z"
       transform="matrix(0.81639332,0,0,0.81639332,170.48951,58.748104)" />
    <path
       sodipodi:type="star"
       style="fill:#000000;stroke-width:0.264583"
       id="path966-5"
       inkscape:flatsided="true"
       sodipodi:sides="6"
       sodipodi:cx="21.432611"
       sodipodi:cy="46.739861"
       sodipodi:r1="20.405426"
       sodipodi:r2="17.671618"
       sodipodi:arg1="1.0471976"
       sodipodi:arg2="1.5707963"
       inkscape:rounded="0"
       inkscape:randomized="0"
       d="M 31.635324,64.411478 11.229898,64.411477 1.0271854,46.73986 11.229899,29.068243 l 20.405426,1e-6 10.202712,17.671618 z"
       transform="matrix(0.81639332,0,0,0.81639332,118.10704,90.488113)" />
    <path
       sodipodi:type="star"
       style="fill:#000000;stroke-width:0.264583"
       id="path968-6"
       inkscape:flatsided="true"
       sodipodi:sides="6"
       sodipodi:cx="21.432611"
       sodipodi:cy="46.739861"
       sodipodi:r1="20.405426"
       sodipodi:r2="17.671618"
       sodipodi:arg1="1.0471976"
       sodipodi:arg2="1.5707963"
       inkscape:rounded="0"
       inkscape:randomized="0"
       d="M 31.635324,64.411478 11.229898,64.411477 1.0271854,46.73986 11.229899,29.068243 l 20.405426,1e-6 10.202712,17.671618 z"
       transform="matrix(0.81639332,0,0,0.81639332,63.740599,90.747801)" />
    <path
       sodipodi:type="star"
       style="fill:#000000;stroke-width:0.264583"
       id="path970-2"
       inkscape:flatsided="true"
       sodipodi:sides="6"
       sodipodi:cx="21.432611"
       sodipodi:cy="46.739861"
       sodipodi:r1="20.405426"
       sodipodi:r2="17.671618"
       sodipodi:arg1="1.0471976"
       sodipodi:arg2="1.5707963"
       inkscape:rounded="0"
       inkscape:randomized="0"
       d="M 31.635324,64.411478 11.229898,64.411477 1.0271854,46.73986 11.229899,29.068243 l 20.405426,1e-6 10.202712,17.671618 z"
       transform="matrix(0.81639332,0,0,0.81639332,170.49777,89.034608)" />
    <path
       sodipodi:type="star"
       style="fill:#000000;stroke-width:0.264583"
       id="path970-2-0"
       inkscape:flatsided="true"
       sodipodi:sides="6"
       sodipodi:cx="21.432611"
       sodipodi:cy="46.739861"
       sodipodi:r1="20.405426"
       sodipodi:r2="17.671618"
       sodipodi:arg1="1.0471976"
       sodipodi:arg2="1.5707963"
       inkscape:rounded="0"
       inkscape:randomized="0"
       d="M 31.635324,64.411478 11.229898,64.411477 1.0271854,46.73986 11.229899,29.068243 l 20.405426,1e-6 10.202712,17.671618 z"
       transform="matrix(0.81639332,0,0,0.81639332,170.20768,28.155214)" />
  </g>
</svg>
